# xmcd CD database file
#
# Track frame offsets:
#	150
#	19105
#	38317
#	57272
#
# Disc length: 1016 seconds
#
# Revision: 3
# Processed by: cddbd v1.5.2PL0 Copyright (c) Steve Scherf et al.
# Submitted via: CDex 1.70beta2
#
DISCID=2303f604
DTITLE=Kiroro - ???Kiss
DYEAR=1999
DGENRE=JPop
TTITLE0=???Kiss
TTITLE1=????
TTITLE2=???Kiss(????)
TTITLE3=????(????)
EXTD=YEAR: 1999
EXTT0=
EXTT1=
EXTT2=
EXTT3=
PLAYORDER=
